<svg xmlns="http://www.w3.org/2000/svg" xmlns:xlink="http://www.w3.org/1999/xlink" width="1080" zoomAndPan="magnify" viewBox="0 0 810 809.999993" height="1080" preserveAspectRatio="xMidYMid meet" version="1.0"><defs><filter x="0%" y="0%" width="100%" height="100%" id="25c43133b1"><feColorMatrix values="0 0 0 0 1 0 0 0 0 1 0 0 0 0 1 0 0 0 1 0" color-interpolation-filters="sRGB"/></filter><g/><clipPath id="34b6fd3ccc"><path d="M 201.152344 383.238281 L 211.652344 383.238281 L 211.652344 393.738281 L 201.152344 393.738281 Z M 201.152344 383.238281 " clip-rule="nonzero"/></clipPath><clipPath id="084c3bd47b"><path d="M 0.761719 0.761719 L 331 0.761719 L 331 762.519531 L 0.761719 762.519531 Z M 0.761719 0.761719 " clip-rule="nonzero"/></clipPath><clipPath id="c5b2a8620f"><rect x="0" width="331" y="0" height="763"/></clipPath><mask id="f9644497a6"><g filter="url(#25c43133b1)"><rect x="-219.2" width="1166.4" fill="#000000" y="-201.199998" height="1166.39999" fill-opacity="0.73"/></g></mask><clipPath id="88f041266f"><rect x="0" width="372" y="0" height="338"/></clipPath><clipPath id="4f1c4dcf3e"><path d="M 596 114 L 728.496094 114 L 728.496094 258.433594 L 596 258.433594 Z M 596 114 " clip-rule="nonzero"/></clipPath><clipPath id="8cfb089ff0"><path d="M 429.171875 266.148438 L 725 266.148438 L 725 330.863281 L 429.171875 330.863281 Z M 429.171875 266.148438 " clip-rule="nonzero"/></clipPath><clipPath id="e3c62fe3cf"><rect x="0" width="730" y="0" height="763"/></clipPath></defs><rect x="-81" width="972" fill="#ffffff" y="-80.999999" height="971.999992" fill-opacity="1"/><rect x="-81" width="972" fill="#ffffff" y="-80.999999" height="971.999992" fill-opacity="1"/><g clip-path="url(#34b6fd3ccc)"><path fill="#216041" d="M 211.652344 388.3125 C 211.652344 391.113281 209.378906 393.386719 206.578125 393.386719 C 203.777344 393.386719 201.503906 391.113281 201.503906 388.3125 C 201.503906 385.507812 203.777344 383.238281 206.578125 383.238281 C 209.378906 383.238281 211.652344 385.507812 211.652344 388.3125 Z M 211.652344 388.3125 " fill-opacity="1" fill-rule="evenodd"/></g><g transform="matrix(1, 0, 0, 1, 41, 23)"><g clip-path="url(#e3c62fe3cf)"><g clip-path="url(#084c3bd47b)"><g transform="matrix(1, 0, 0, 1, 0, 0.00000000000003908)"><g clip-path="url(#c5b2a8620f)"><g fill="#216041" fill-opacity="1"><g transform="translate(309.445983, 18.326744)"><g><path d="M 8.859375 50.59375 L -13.8125 57.4375 C -19.4375 59.125 -24.117188 58.960938 -27.859375 56.953125 C -30.773438 55.398438 -32.726562 52.972656 -33.71875 49.671875 L -33.765625 49.53125 C -34.179688 48.132812 -34.375 46.84375 -34.34375 45.65625 C -34.320312 44.476562 -34.148438 43.375 -33.828125 42.34375 C -33.515625 41.320312 -33.070312 40.363281 -32.5 39.46875 C -31.925781 38.582031 -31.265625 37.78125 -30.515625 37.0625 C -33.679688 36.84375 -36.351562 36.0625 -38.53125 34.71875 C -40.71875 33.375 -42.300781 31.070312 -43.28125 27.8125 L -43.328125 27.671875 C -43.992188 25.429688 -44.148438 23.347656 -43.796875 21.421875 C -43.441406 19.492188 -42.628906 17.726562 -41.359375 16.125 C -40.097656 14.519531 -38.421875 13.097656 -36.328125 11.859375 C -34.242188 10.628906 -31.828125 9.597656 -29.078125 8.765625 L -5.859375 1.765625 Z M -23.59375 44.640625 C -23.101562 46.265625 -22.125 47.328125 -20.65625 47.828125 C -19.1875 48.328125 -17.3125 48.234375 -15.03125 47.546875 L -4.4375 44.34375 L -7.5625 34 L -17.453125 36.984375 C -19.828125 37.703125 -21.585938 38.679688 -22.734375 39.921875 C -23.878906 41.160156 -24.179688 42.6875 -23.640625 44.5 Z M -32.203125 25.921875 C -31.710938 27.546875 -30.695312 28.644531 -29.15625 29.21875 C -27.613281 29.800781 -25.445312 29.675781 -22.65625 28.84375 L -10.25 25.09375 L -13.484375 14.34375 L -26.234375 18.1875 C -28.609375 18.90625 -30.335938 19.894531 -31.421875 21.15625 C -32.515625 22.425781 -32.789062 23.96875 -32.25 25.78125 Z M -32.203125 25.921875 "/></g></g></g><g fill="#216041" fill-opacity="1"><g transform="translate(228.625728, 46.82458)"><g><path d="M 19.96875 47.328125 L -13.453125 66.390625 L -18.40625 57.71875 L 5.328125 44.1875 L 0.203125 35.203125 L -20.671875 47.109375 L -25.625 38.4375 L -4.75 26.53125 L -10.046875 17.234375 L -34.09375 30.953125 L -39.046875 22.28125 L -5.3125 3.03125 Z M 19.96875 47.328125 "/></g></g></g><g fill="#216041" fill-opacity="1"><g transform="translate(159.291499, 90.462065)"><g><path d="M -1.453125 28.65625 L 33.875 38.140625 L 24.21875 47.015625 L 1.421875 40.171875 L 6.140625 63.640625 L -3.25 72.265625 L -9.5625 36.421875 L -23.328125 21.453125 L -15.0625 13.859375 Z M -1.453125 28.65625 "/></g></g></g><g fill="#216041" fill-opacity="1"><g transform="translate(98.572082, 151.078873)"><g><path d="M -17.75 25.296875 C -15.582031 22.015625 -13.007812 19.375 -10.03125 17.375 C -7.0625 15.382812 -3.929688 14.035156 -0.640625 13.328125 C 2.648438 12.628906 5.988281 12.59375 9.375 13.21875 C 12.769531 13.851562 15.992188 15.175781 19.046875 17.1875 L 19.15625 17.265625 C 22.195312 19.273438 24.671875 21.722656 26.578125 24.609375 C 28.484375 27.492188 29.773438 30.601562 30.453125 33.9375 C 31.140625 37.269531 31.144531 40.707031 30.46875 44.25 C 29.789062 47.789062 28.367188 51.203125 26.203125 54.484375 C 24.035156 57.765625 21.460938 60.398438 18.484375 62.390625 C 15.515625 64.378906 12.382812 65.726562 9.09375 66.4375 C 5.800781 67.15625 2.460938 67.191406 -0.921875 66.546875 C -4.316406 65.910156 -7.535156 64.585938 -10.578125 62.578125 L -10.703125 62.5 C -13.742188 60.488281 -16.21875 58.039062 -18.125 55.15625 C -20.03125 52.28125 -21.320312 49.175781 -22 45.84375 C -22.6875 42.519531 -22.691406 39.082031 -22.015625 35.53125 C -21.335938 31.988281 -19.914062 28.578125 -17.75 25.296875 Z M -9.1875 31.125 C -10.414062 32.988281 -11.207031 34.9375 -11.5625 36.96875 C -11.925781 39.007812 -11.863281 40.988281 -11.375 42.90625 C -10.894531 44.820312 -10.0625 46.617188 -8.875 48.296875 C -7.695312 49.984375 -6.191406 51.429688 -4.359375 52.640625 L -4.25 52.71875 C -2.425781 53.925781 -0.492188 54.75 1.546875 55.1875 C 3.585938 55.625 5.597656 55.664062 7.578125 55.3125 C 9.554688 54.957031 11.421875 54.222656 13.171875 53.109375 C 14.921875 52.003906 16.410156 50.519531 17.640625 48.65625 C 18.898438 46.75 19.695312 44.789062 20.03125 42.78125 C 20.375 40.769531 20.304688 38.800781 19.828125 36.875 C 19.359375 34.957031 18.523438 33.15625 17.328125 31.46875 C 16.140625 29.789062 14.632812 28.347656 12.8125 27.140625 L 12.6875 27.0625 C 10.863281 25.851562 8.929688 25.023438 6.890625 24.578125 C 4.859375 24.140625 2.851562 24.097656 0.875 24.453125 C -1.101562 24.804688 -2.957031 25.53125 -4.6875 26.625 C -6.425781 27.71875 -7.925781 29.21875 -9.1875 31.125 Z M -9.1875 31.125 "/></g></g></g><g fill="#216041" fill-opacity="1"><g transform="translate(49.703713, 233.350349)"><g><path d="M 46.21875 22.40625 L 42.859375 32.1875 L 5.390625 44.53125 L 35.078125 54.765625 L 31.46875 65.25 L -16.75 48.640625 L -13.640625 39.609375 L 25.0625 26.8125 L -5.59375 16.25 L -2 5.796875 Z M 46.21875 22.40625 "/></g></g></g><g fill="#216041" fill-opacity="1"><g transform="translate(23.973201, 320.796135)"><g><path d="M 50.28125 10.546875 L 48.546875 30.359375 C 48.203125 34.316406 47.242188 37.898438 45.671875 41.109375 C 44.097656 44.316406 42.066406 47.019531 39.578125 49.21875 C 37.097656 51.414062 34.257812 53.03125 31.0625 54.0625 C 27.875 55.09375 24.492188 55.453125 20.921875 55.140625 L 20.78125 55.125 C 17.195312 54.8125 13.910156 53.867188 10.921875 52.296875 C 7.941406 50.722656 5.421875 48.640625 3.359375 46.046875 C 1.296875 43.453125 -0.238281 40.4375 -1.25 37 C -2.269531 33.570312 -2.609375 29.878906 -2.265625 25.921875 L -0.53125 6.109375 Z M 39.203125 20.84375 L 8.578125 18.15625 L 7.828125 26.796875 C 7.628906 29.066406 7.804688 31.175781 8.359375 33.125 C 8.921875 35.082031 9.820312 36.78125 11.0625 38.21875 C 12.300781 39.664062 13.804688 40.847656 15.578125 41.765625 C 17.359375 42.679688 19.382812 43.238281 21.65625 43.4375 L 21.796875 43.453125 C 24.023438 43.648438 26.113281 43.453125 28.0625 42.859375 C 30.019531 42.265625 31.734375 41.363281 33.203125 40.15625 C 34.671875 38.945312 35.863281 37.429688 36.78125 35.609375 C 37.695312 33.796875 38.253906 31.753906 38.453125 29.484375 Z M 39.203125 20.84375 "/></g></g></g><g fill="#216041" fill-opacity="1"><g transform="translate(21.006744, 409.898973)"><g/></g></g><g fill="#216041" fill-opacity="1"><g transform="translate(28.282818, 463.480555)"><g><path d="M 50.59375 -8.859375 L 57.421875 13.8125 C 59.117188 19.4375 58.957031 24.128906 56.9375 27.890625 C 55.382812 30.785156 52.957031 32.734375 49.65625 33.734375 L 49.515625 33.78125 C 48.117188 34.195312 46.832031 34.390625 45.65625 34.359375 C 44.488281 34.335938 43.382812 34.164062 42.34375 33.84375 C 41.3125 33.53125 40.351562 33.085938 39.46875 32.515625 C 38.582031 31.941406 37.773438 31.28125 37.046875 30.53125 C 36.828125 33.695312 36.046875 36.367188 34.703125 38.546875 C 33.359375 40.722656 31.0625 42.300781 27.8125 43.28125 L 27.65625 43.328125 C 25.414062 43.992188 23.332031 44.148438 21.40625 43.796875 C 19.488281 43.453125 17.726562 42.644531 16.125 41.375 C 14.519531 40.101562 13.097656 38.425781 11.859375 36.34375 C 10.617188 34.257812 9.585938 31.835938 8.765625 29.078125 L 1.765625 5.859375 Z M 44.625 23.609375 C 46.25 23.117188 47.3125 22.140625 47.8125 20.671875 C 48.3125 19.203125 48.21875 17.328125 47.53125 15.046875 L 44.34375 4.453125 L 34 7.5625 L 36.984375 17.453125 C 37.691406 19.828125 38.664062 21.585938 39.90625 22.734375 C 41.144531 23.890625 42.675781 24.191406 44.5 23.640625 Z M 25.921875 32.234375 C 27.546875 31.742188 28.644531 30.722656 29.21875 29.171875 C 29.800781 27.617188 29.671875 25.445312 28.828125 22.65625 L 25.09375 10.25 L 14.34375 13.484375 L 18.1875 26.234375 C 18.894531 28.609375 19.882812 30.34375 21.15625 31.4375 C 22.425781 32.539062 23.96875 32.816406 25.78125 32.265625 Z M 25.921875 32.234375 "/></g></g></g><g fill="#216041" fill-opacity="1"><g transform="translate(56.544566, 544.970814)"><g><path d="M 15.0625 27 C 13.039062 23.613281 11.78125 20.144531 11.28125 16.59375 C 10.78125 13.050781 10.925781 9.644531 11.71875 6.375 C 12.519531 3.101562 13.941406 0.0820312 15.984375 -2.6875 C 18.035156 -5.46875 20.625 -7.789062 23.75 -9.65625 L 23.875 -9.734375 C 27.007812 -11.597656 30.289062 -12.757812 33.71875 -13.21875 C 37.15625 -13.6875 40.519531 -13.5 43.8125 -12.65625 C 47.101562 -11.820312 50.191406 -10.328125 53.078125 -8.171875 C 55.972656 -6.023438 58.425781 -3.265625 60.4375 0.109375 C 62.457031 3.492188 63.71875 6.957031 64.21875 10.5 C 64.71875 14.050781 64.570312 17.460938 63.78125 20.734375 C 62.988281 24.015625 61.566406 27.039062 59.515625 29.8125 C 57.460938 32.582031 54.867188 34.898438 51.734375 36.765625 L 51.609375 36.84375 C 48.472656 38.707031 45.191406 39.867188 41.765625 40.328125 C 38.335938 40.785156 34.976562 40.597656 31.6875 39.765625 C 28.394531 38.929688 25.300781 37.4375 22.40625 35.28125 C 19.519531 33.132812 17.070312 30.375 15.0625 27 Z M 24.015625 21.8125 C 25.160156 23.738281 26.570312 25.304688 28.25 26.515625 C 29.925781 27.722656 31.734375 28.523438 33.671875 28.921875 C 35.609375 29.316406 37.59375 29.347656 39.625 29.015625 C 41.664062 28.679688 43.625 27.957031 45.5 26.84375 L 45.625 26.765625 C 47.507812 25.640625 49.085938 24.257812 50.359375 22.625 C 51.640625 20.988281 52.550781 19.195312 53.09375 17.25 C 53.644531 15.3125 53.800781 13.3125 53.5625 11.25 C 53.332031 9.195312 52.644531 7.210938 51.5 5.296875 C 50.332031 3.328125 48.910156 1.75 47.234375 0.5625 C 45.566406 -0.613281 43.765625 -1.40625 41.828125 -1.8125 C 39.890625 -2.21875 37.90625 -2.25 35.875 -1.90625 C 33.84375 -1.570312 31.890625 -0.847656 30.015625 0.265625 L 29.890625 0.34375 C 28.015625 1.457031 26.429688 2.832031 25.140625 4.46875 C 23.847656 6.113281 22.929688 7.90625 22.390625 9.84375 C 21.847656 11.789062 21.691406 13.78125 21.921875 15.8125 C 22.148438 17.851562 22.847656 19.851562 24.015625 21.8125 Z M 24.015625 21.8125 "/></g></g></g><g fill="#216041" fill-opacity="1"><g transform="translate(109.361095, 624.63826)"><g><path d="M 18.796875 19.9375 C 13.960938 15.09375 11.488281 9.9375 11.375 4.46875 C 11.269531 -0.988281 13.878906 -6.378906 19.203125 -11.703125 L 39.8125 -32.3125 L 47.75 -24.375 L 27.359375 -3.984375 C 24.398438 -1.023438 22.859375 1.890625 22.734375 4.765625 C 22.617188 7.640625 23.78125 10.296875 26.21875 12.734375 C 28.65625 15.171875 31.28125 16.351562 34.09375 16.28125 C 36.914062 16.21875 39.769531 14.742188 42.65625 11.859375 L 63.3125 -8.796875 L 71.25 -0.875 L 50.90625 19.484375 C 48.15625 22.222656 45.394531 24.234375 42.625 25.515625 C 39.863281 26.804688 37.117188 27.441406 34.390625 27.421875 C 31.660156 27.398438 28.984375 26.75 26.359375 25.46875 C 23.734375 24.1875 21.210938 22.34375 18.796875 19.9375 Z M 18.796875 19.9375 "/></g></g></g><g fill="#216041" fill-opacity="1"><g transform="translate(174.716737, 684.486066)"><g><path d="M 31.625 -40.46875 L 40.484375 -35.125 L 44.671875 4.109375 L 60.921875 -22.765625 L 70.40625 -17.03125 L 44.015625 26.609375 L 35.84375 21.671875 L 31.46875 -18.859375 L 14.703125 8.890625 L 5.234375 3.171875 Z M 31.625 -40.46875 "/></g></g></g><g fill="#216041" fill-opacity="1"><g transform="translate(254.795164, 728.038559)"><g><path d="M 20.890625 -46.921875 L 39.890625 -41.0625 C 43.691406 -39.894531 46.992188 -38.203125 49.796875 -35.984375 C 52.597656 -33.773438 54.8125 -31.222656 56.4375 -28.328125 C 58.0625 -25.441406 59.039062 -22.332031 59.375 -19 C 59.71875 -15.664062 59.363281 -12.28125 58.3125 -8.84375 L 58.265625 -8.703125 C 57.203125 -5.273438 55.585938 -2.269531 53.421875 0.3125 C 51.253906 2.90625 48.6875 4.9375 45.71875 6.40625 C 42.75 7.875 39.476562 8.742188 35.90625 9.015625 C 32.34375 9.285156 28.660156 8.835938 24.859375 7.671875 L 5.859375 1.8125 Z M 28.625 -33.953125 L 19.5625 -4.5625 L 27.84375 -2 C 30.019531 -1.332031 32.117188 -1.066406 34.140625 -1.203125 C 36.171875 -1.335938 38.023438 -1.859375 39.703125 -2.765625 C 41.378906 -3.671875 42.847656 -4.894531 44.109375 -6.4375 C 45.378906 -7.988281 46.347656 -9.851562 47.015625 -12.03125 L 47.0625 -12.15625 C 47.71875 -14.300781 47.960938 -16.390625 47.796875 -18.421875 C 47.640625 -20.453125 47.125 -22.3125 46.25 -24 C 45.375 -25.6875 44.140625 -27.171875 42.546875 -28.453125 C 40.960938 -29.742188 39.082031 -30.722656 36.90625 -31.390625 Z M 28.625 -33.953125 "/></g></g></g></g></g></g><g mask="url(#f9644497a6)"><g transform="matrix(1, 0, 0, 1, 204, 213)"><g clip-path="url(#88f041266f)"><path fill="#000000" d="M 260.378906 189.105469 C 263.136719 197.023438 268.132812 203.890625 274.769531 209.046875 L 346.640625 264.15625 C 348.207031 265.351562 350.519531 265.050781 351.710938 263.484375 L 351.785156 263.335938 C 352.382812 262.589844 352.605469 261.617188 352.53125 260.648438 C 352.382812 259.675781 351.933594 258.855469 351.113281 258.257812 L 334.5625 245.5625 C 333.890625 245.039062 333.816406 244.144531 334.265625 243.472656 C 334.785156 242.800781 335.683594 242.722656 336.351562 243.171875 L 352.902344 255.867188 C 354.46875 257.0625 356.78125 256.761719 357.972656 255.195312 L 358.046875 255.046875 C 359.242188 253.476562 358.941406 251.164062 357.378906 249.96875 L 340.824219 237.273438 C 340.15625 236.75 340.082031 235.855469 340.527344 235.183594 C 341.050781 234.511719 341.945312 234.433594 342.617188 234.882812 L 359.167969 247.578125 C 359.914062 248.175781 360.882812 248.398438 361.851562 248.324219 C 362.820312 248.175781 363.640625 247.726562 364.238281 246.90625 L 364.3125 246.757812 C 365.503906 245.1875 365.207031 242.875 363.640625 241.679688 L 347.3125 229.132812 C 346.941406 228.835938 346.714844 228.460938 346.714844 227.9375 C 346.714844 227.488281 346.941406 227.042969 347.238281 226.742188 L 356.707031 218.902344 C 357.601562 218.15625 358.125 217.109375 358.125 215.914062 L 358.125 208.523438 C 358.125 206.582031 356.558594 205.011719 354.617188 205.011719 C 352.679688 205.011719 351.113281 206.582031 351.113281 208.523438 L 351.113281 213.75 C 351.113281 214.199219 350.890625 214.570312 350.59375 214.871094 L 346.714844 218.230469 C 344.480469 220.171875 341.125 220.097656 338.960938 218.230469 C 336.652344 216.214844 336.277344 212.855469 337.992188 210.316406 L 339.707031 207.925781 C 339.929688 207.625 340.230469 207.402344 340.601562 207.328125 L 345.375 206.207031 C 347.535156 205.757812 348.953125 203.667969 348.578125 201.429688 L 348.578125 201.277344 C 348.207031 198.964844 345.96875 197.394531 343.660156 197.769531 C 337.621094 198.738281 328.824219 200.082031 328.824219 200.082031 C 328.449219 200.160156 328.003906 200.007812 327.703125 199.785156 L 297.507812 177.605469 C 297.285156 177.457031 297.0625 177.160156 296.988281 176.859375 L 287.371094 149.453125 L 252.550781 167.300781 Z M 260.378906 189.105469 " fill-opacity="1" fill-rule="nonzero"/><path fill="#000000" d="M 173.371094 89.265625 L 157.046875 89.265625 C 157.941406 102.40625 170.242188 112.9375 185.300781 112.9375 C 200.363281 112.9375 212.738281 102.480469 213.558594 89.265625 L 197.230469 89.265625 C 196.410156 89.265625 195.738281 88.59375 195.738281 87.769531 L 195.738281 76.269531 C 194.621094 76.496094 193.429688 76.570312 192.160156 76.570312 C 189.328125 76.570312 186.644531 76.046875 184.109375 74.925781 C 183.363281 74.628906 182.992188 73.730469 183.363281 72.984375 C 183.660156 72.238281 184.554688 71.863281 185.300781 72.238281 C 187.464844 73.207031 189.773438 73.65625 192.160156 73.65625 C 202.375 73.65625 210.652344 65.367188 210.652344 55.136719 L 210.652344 33.480469 C 210.652344 27.582031 205.878906 22.800781 199.988281 22.800781 L 194.472656 22.800781 C 193.054688 29.148438 189.550781 34.898438 184.480469 39.082031 C 183.8125 39.605469 182.917969 39.53125 182.394531 38.855469 C 182.394531 38.78125 182.320312 38.78125 182.320312 38.707031 C 180.679688 36.242188 177.921875 34.75 174.9375 34.75 C 170.019531 34.75 166.066406 38.707031 166.066406 43.636719 C 166.066406 47.96875 169.273438 51.777344 173.597656 52.375 C 174.34375 52.449219 174.863281 53.121094 174.863281 53.867188 L 174.863281 87.769531 C 174.863281 88.59375 174.191406 89.265625 173.371094 89.265625 Z M 196.261719 53.046875 L 201.703125 53.046875 L 201.703125 43.710938 C 201.703125 42.890625 202.375 42.21875 203.195312 42.21875 C 204.015625 42.21875 204.6875 42.890625 204.6875 43.710938 L 204.6875 54.539062 C 204.6875 55.359375 204.015625 56.03125 203.195312 56.03125 L 196.261719 56.03125 C 195.441406 56.03125 194.769531 55.359375 194.769531 54.539062 C 194.769531 53.71875 195.441406 53.046875 196.261719 53.046875 Z M 191.789062 62.53125 C 192.160156 61.78125 193.054688 61.484375 193.800781 61.859375 C 195.515625 62.753906 197.527344 63.203125 199.46875 63.203125 L 201.109375 63.203125 C 201.929688 63.203125 202.597656 63.875 202.597656 64.695312 C 202.597656 65.515625 201.929688 66.1875 201.109375 66.1875 L 199.46875 66.1875 C 197.007812 66.1875 194.621094 65.589844 192.460938 64.472656 C 191.714844 64.171875 191.414062 63.277344 191.789062 62.53125 Z M 191.789062 62.53125 " fill-opacity="1" fill-rule="nonzero"/><path fill="#000000" d="M 6.441406 246.90625 C 7.632812 248.472656 9.945312 248.773438 11.511719 247.578125 L 28.0625 234.882812 C 28.734375 234.359375 29.628906 234.511719 30.152344 235.183594 C 30.671875 235.855469 30.523438 236.75 29.851562 237.273438 L 13.300781 249.96875 C 12.554688 250.566406 12.035156 251.386719 11.882812 252.359375 C 11.734375 253.328125 12.035156 254.300781 12.628906 255.046875 L 12.703125 255.195312 C 13.898438 256.761719 16.207031 257.0625 17.773438 255.867188 L 34.324219 243.171875 C 34.996094 242.648438 35.890625 242.800781 36.414062 243.472656 C 36.933594 244.144531 36.785156 245.039062 36.113281 245.5625 L 19.5625 258.257812 C 17.996094 259.453125 17.699219 261.765625 18.890625 263.335938 L 18.96875 263.484375 C 19.5625 264.230469 20.382812 264.753906 21.351562 264.902344 C 22.320312 265.050781 23.292969 264.753906 24.035156 264.15625 L 95.910156 209.046875 C 102.542969 203.890625 107.539062 197.023438 110.296875 189.105469 L 117.679688 168.195312 L 83.085938 149.828125 L 73.46875 177.007812 C 73.394531 177.308594 73.167969 177.53125 72.945312 177.753906 L 42.75 199.933594 C 42.453125 200.160156 42.003906 200.308594 41.632812 200.234375 C 41.632812 200.234375 32.835938 198.890625 26.796875 197.917969 C 24.484375 197.542969 22.246094 199.1875 21.875 201.503906 L 21.875 201.652344 C 21.5 203.816406 22.917969 205.910156 25.082031 206.429688 L 29.925781 207.550781 C 30.300781 207.625 30.597656 207.851562 30.820312 208.148438 L 32.535156 210.539062 C 34.324219 213.003906 33.878906 216.4375 31.566406 218.453125 C 29.332031 220.394531 26.050781 220.394531 23.8125 218.453125 L 19.9375 215.09375 C 19.636719 214.796875 19.414062 214.421875 19.414062 213.972656 L 19.414062 208.820312 C 19.414062 207.851562 19.042969 207.027344 18.371094 206.355469 C 17.699219 205.683594 16.804688 205.3125 15.910156 205.3125 C 13.972656 205.3125 12.40625 206.878906 12.40625 208.820312 L 12.40625 216.214844 C 12.40625 217.335938 12.929688 218.453125 13.824219 219.199219 L 23.292969 227.042969 C 23.664062 227.339844 23.8125 227.789062 23.8125 228.238281 C 23.8125 228.683594 23.589844 229.132812 23.214844 229.433594 L 6.890625 241.976562 C 5.324219 243.171875 5.023438 245.488281 6.21875 247.054688 Z M 6.441406 246.90625 " fill-opacity="1" fill-rule="nonzero"/><path fill="#000000" d="M 185.300781 115.921875 C 168.601562 115.921875 154.882812 104.125 154.0625 89.265625 L 119.394531 89.265625 C 110.597656 89.265625 102.617188 94.863281 99.710938 103.226562 L 84.277344 146.988281 L 120.4375 166.179688 C 120.886719 166.40625 121.257812 166.925781 121.257812 167.523438 L 121.257812 229.65625 L 249.496094 229.65625 L 249.496094 166.703125 C 249.496094 166.105469 249.792969 165.65625 250.316406 165.359375 L 286.699219 146.765625 L 271.339844 103.152344 C 268.433594 94.789062 260.453125 89.1875 251.65625 89.1875 L 216.691406 89.1875 C 215.722656 104.050781 202.003906 115.921875 185.300781 115.921875 Z M 185.300781 115.921875 " fill-opacity="1" fill-rule="nonzero"/><path fill="#000000" d="M 116.261719 74.03125 L 117.082031 73.730469 C 125.730469 70.820312 135.273438 70.820312 143.921875 73.730469 C 151.601562 76.269531 159.730469 76.417969 167.484375 74.179688 L 170.242188 73.359375 C 170.761719 73.207031 171.285156 73.058594 171.808594 72.910156 L 171.808594 54.988281 C 166.738281 53.644531 163.007812 48.9375 163.007812 43.5625 C 163.007812 36.992188 168.304688 31.6875 174.863281 31.6875 C 178.292969 31.6875 181.5 33.183594 183.734375 35.644531 C 187.910156 31.761719 190.746094 26.609375 191.789062 20.933594 C 191.9375 20.1875 192.535156 19.738281 193.28125 19.738281 L 199.988281 19.738281 C 207.519531 19.738281 213.632812 25.863281 213.632812 33.40625 L 213.632812 55.0625 C 213.632812 61.035156 211.171875 66.414062 207.296875 70.296875 C 212.738281 67.234375 216.988281 62.007812 218.554688 55.734375 L 219 53.792969 C 219.671875 51.105469 220.195312 48.265625 220.566406 45.429688 C 220.941406 42.589844 221.089844 39.753906 221.089844 36.992188 C 221.089844 17.199219 204.984375 1.070312 185.300781 1.070312 C 182.46875 1.070312 179.710938 1.519531 176.953125 2.414062 L 164.949219 6.449219 C 158.984375 8.464844 152.421875 8.464844 146.457031 6.449219 L 141.6875 4.804688 C 134.828125 2.488281 127.074219 3.238281 120.734375 6.746094 C 113.878906 10.554688 105.601562 11.375 98.070312 9.0625 L 73.542969 1.59375 L 73.542969 69.625 L 94.269531 74.851562 C 101.5 76.71875 109.179688 76.417969 116.261719 74.03125 Z M 116.261719 74.03125 " fill-opacity="1" fill-rule="nonzero"/><path fill="#000000" d="M 296.613281 316.429688 L 241.742188 325.914062 L 288.265625 332.113281 C 290.949219 332.484375 293.707031 331.664062 295.792969 329.871094 C 297.882812 328.078125 299 325.464844 299 322.703125 C 299 320.6875 298.402344 318.746094 297.210938 317.175781 C 296.988281 316.878906 296.839844 316.652344 296.613281 316.429688 Z M 296.613281 316.429688 " fill-opacity="1" fill-rule="nonzero"/><path fill="#000000" d="M 210.875 336.964844 L 212.214844 330.992188 L 194.097656 334.054688 Z M 210.875 336.964844 " fill-opacity="1" fill-rule="nonzero"/><path fill="#000000" d="M 148.023438 326.136719 L 154.511719 327.257812 L 154.136719 325.316406 Z M 148.023438 326.136719 " fill-opacity="1" fill-rule="nonzero"/><path fill="#000000" d="M 367.964844 269.234375 C 366.847656 264.230469 364.535156 259.675781 361.179688 255.867188 C 361.03125 256.242188 360.808594 256.539062 360.582031 256.914062 L 360.507812 257.0625 C 359.242188 258.703125 357.378906 259.601562 355.4375 259.675781 C 355.511719 259.898438 355.511719 260.125 355.589844 260.347656 C 355.8125 262.066406 355.363281 263.859375 354.320312 265.277344 L 354.246094 265.425781 C 352.007812 268.339844 347.910156 268.859375 345 266.695312 L 312.421875 241.605469 L 250.835938 232.644531 L 119.765625 232.644531 L 60.121094 241.304688 C 59.75 241.378906 59.375 241.230469 59.078125 241.082031 L 25.902344 266.472656 C 24.707031 267.367188 23.367188 267.816406 21.875 267.816406 C 21.578125 267.816406 21.277344 267.816406 20.980469 267.742188 C 19.265625 267.515625 17.699219 266.621094 16.582031 265.203125 L 16.507812 265.050781 C 15.238281 263.410156 14.867188 261.394531 15.3125 259.527344 C 13.375 259.453125 11.511719 258.554688 10.242188 256.914062 L 10.167969 256.761719 C 9.871094 256.390625 9.648438 256.015625 9.421875 255.570312 C 5.996094 259.378906 3.535156 264.007812 2.414062 269.085938 C 0.625 277.148438 2.191406 285.363281 6.738281 292.234375 C 11.363281 299.105469 18.371094 303.660156 26.496094 305.078125 L 71.679688 312.84375 C 72.871094 311.875 74.136719 311.128906 75.628906 310.679688 L 108.65625 299.628906 L 118.050781 290.21875 C 120.886719 287.378906 124.835938 286.035156 128.863281 286.707031 C 132.367188 287.304688 135.347656 289.246094 137.289062 292.160156 L 145.5625 287.976562 L 143.253906 277.449219 C 143.175781 277.074219 143.253906 276.628906 143.476562 276.328125 C 143.699219 275.957031 144.074219 275.730469 144.445312 275.65625 L 176.28125 270.207031 L 66.980469 251.460938 C 66.160156 251.3125 65.640625 250.566406 65.789062 249.742188 C 65.9375 248.921875 66.683594 248.398438 67.503906 248.550781 L 185.300781 268.859375 L 308.246094 247.578125 C 309.066406 247.429688 309.8125 247.953125 309.960938 248.773438 C 310.109375 249.59375 309.585938 250.339844 308.765625 250.492188 L 146.832031 278.417969 L 159.804688 336.890625 L 185.078125 332.558594 L 343.957031 305.152344 C 352.085938 303.734375 359.09375 299.179688 363.714844 292.308594 C 368.261719 285.515625 369.753906 277.300781 367.964844 269.234375 Z M 367.964844 269.234375 " fill-opacity="1" fill-rule="nonzero"/><path fill="#000000" d="M 146.53125 291.1875 L 137.660156 295.667969 C 136.914062 296.042969 136.019531 295.746094 135.648438 294.996094 C 134.230469 292.234375 131.695312 290.367188 128.640625 289.84375 C 125.582031 289.324219 122.601562 290.292969 120.4375 292.535156 L 110.746094 302.242188 C 110.597656 302.390625 110.371094 302.539062 110.148438 302.613281 L 76.746094 313.742188 C 74.882812 314.339844 73.242188 315.535156 72.050781 317.175781 C 70.859375 318.820312 70.261719 320.761719 70.261719 322.703125 C 70.261719 325.464844 71.453125 328.003906 73.46875 329.871094 C 75.554688 331.664062 78.238281 332.484375 80.996094 332.113281 L 153.390625 322.480469 Z M 146.53125 291.1875 " fill-opacity="1" fill-rule="nonzero"/></g></g></g><g clip-path="url(#4f1c4dcf3e)"><path fill="#3c3528" d="M 702.734375 191.472656 C 671.347656 258.296875 596.457031 257.121094 596.457031 257.121094 C 596.457031 257.121094 683.070312 270.667969 717.601562 198.589844 C 728.433594 175.96875 729.882812 152.988281 727.539062 137.378906 C 725.160156 121.527344 719.28125 113.253906 717.421875 114.085938 C 713.152344 115.996094 720.816406 152.964844 702.734375 191.472656 " fill-opacity="1" fill-rule="nonzero"/></g><path fill="#3c3528" d="M 678.539062 143.800781 C 680.8125 217.597656 613.511719 250.460938 613.511719 250.460938 C 613.511719 250.460938 696.871094 223.324219 695.019531 143.421875 C 694.433594 118.34375 685.316406 97.203125 676.160156 84.34375 C 666.867188 71.289062 657.871094 66.570312 656.589844 68.15625 C 653.652344 71.789062 677.222656 101.285156 678.539062 143.800781 " fill-opacity="1" fill-rule="nonzero"/><path fill="#3c3528" d="M 635.566406 114.675781 C 668.257812 180.871094 620.65625 238.699219 620.65625 238.699219 C 620.65625 238.699219 685.242188 179.417969 650.398438 107.488281 C 639.464844 84.917969 622.398438 69.460938 608.730469 61.5625 C 594.855469 53.542969 584.71875 52.980469 584.207031 54.957031 C 583.042969 59.480469 616.726562 76.53125 635.566406 114.675781 " fill-opacity="1" fill-rule="nonzero"/><g clip-path="url(#8cfb089ff0)"><path fill="#000000" d="M 429.171875 280.199219 C 429.171875 280.199219 465.574219 250.082031 527.410156 278.667969 C 607.371094 315.625 683.640625 325.84375 724.390625 284.507812 C 724.390625 284.507812 706.863281 326.957031 642.941406 330.601562 C 546.355469 336.105469 515.988281 253.289062 429.171875 280.199219 " fill-opacity="1" fill-rule="nonzero"/></g><path fill="#3c3528" d="M 431.574219 275.003906 C 431.574219 275.003906 461.636719 238.558594 527.753906 254.945312 C 613.257812 276.136719 690.082031 271.765625 722.289062 223.476562 C 722.289062 223.476562 713.101562 268.472656 651.019531 284.125 C 557.207031 307.769531 511.746094 232.183594 431.574219 275.003906 " fill-opacity="1" fill-rule="nonzero"/></g></g></svg>